<?xml version="1.0" encoding="UTF-8"?>
<svg xmlns="http://www.w3.org/2000/svg" xmlns:xlink="http://www.w3.org/1999/xlink" viewBox="0 0 156.99 26.54">
  <defs>
    <style>
      .cls-1 {
        fill: url(#linear-gradient-4);
      }

      .cls-1, .cls-2 {
        opacity: .56;
      }

      .cls-1, .cls-2, .cls-3, .cls-4 {
        mix-blend-mode: multiply;
      }

      .cls-5 {
        fill: #6cc9c7;
      }

      .cls-2 {
        fill: url(#linear-gradient-2);
      }

      .cls-3 {
        fill: url(#linear-gradient-3);
      }

      .cls-3, .cls-4 {
        opacity: .04;
      }

      .cls-4 {
        fill: url(#linear-gradient);
      }

      .cls-6 {
        isolation: isolate;
      }

      .cls-7 {
        fill: #4dafaa;
      }

      .cls-8 {
        fill: #6d6e71;
      }
    </style>
    <linearGradient id="linear-gradient" x1="13.08" y1="12" x2="11.61" y2=".03" gradientUnits="userSpaceOnUse">
      <stop offset="0" stop-color="#fff"/>
      <stop offset="1" stop-color="#231f20"/>
    </linearGradient>
    <linearGradient id="linear-gradient-2" x1="1.34" y1="5.61" x2="16.8" y2="13.48" xlink:href="#linear-gradient"/>
    <linearGradient id="linear-gradient-3" x1="23.17" y1="16.02" x2="21.7" y2="4.05" xlink:href="#linear-gradient"/>
    <linearGradient id="linear-gradient-4" x1="11.43" y1="9.63" x2="26.88" y2="17.5" xlink:href="#linear-gradient"/>
  </defs>
  <g class="cls-6">
    <g id="Layer_2">
      <g id="Layer_1-2" data-name="Layer_1">
        <g>
          <g>
            <g>
              <path class="cls-7" d="M14.61.31s4.4,3.8,2.93,7.48-6.74,4.49-6.74,4.49c0,0,4.23-8.21-4.62-11.58l8.43-.39Z"/>
              <path class="cls-4" d="M14.61.31s4.4,3.8,2.93,7.48-6.74,4.49-6.74,4.49c0,0,4.23-8.21-4.62-11.58l8.43-.39Z"/>
              <path class="cls-5" d="M14.61.31S5.37,6.88,7.01,13.53c1.64,6.65,5.19,8.99,5.19,8.99,0,0-8.21-1.99-11.24-7S2.77,1,5.71.31s8.9,0,8.9,0Z"/>
              <path class="cls-2" d="M14.61.31S5.37,6.88,7.01,13.53c1.64,6.65,5.19,8.99,5.19,8.99,0,0-8.21-1.99-11.24-7S2.77,1,5.71.31s8.9,0,8.9,0Z"/>
            </g>
            <g>
              <path class="cls-7" d="M24.7,4.33s4.4,3.8,2.93,7.48-6.74,4.49-6.74,4.49c0,0,4.23-8.21-4.62-11.58l8.43-.39Z"/>
              <path class="cls-3" d="M24.7,4.33s4.4,3.8,2.93,7.48-6.74,4.49-6.74,4.49c0,0,4.23-8.21-4.62-11.58l8.43-.39Z"/>
              <path class="cls-5" d="M24.7,4.33s-9.25,6.57-7.61,13.22,5.19,8.99,5.19,8.99c0,0-8.21-1.99-11.24-7-3.02-5.01,1.81-14.52,4.75-15.21s8.9,0,8.9,0Z"/>
              <path class="cls-1" d="M24.7,4.33s-9.25,6.57-7.61,13.22,5.19,8.99,5.19,8.99c0,0-8.21-1.99-11.24-7-3.02-5.01,1.81-14.52,4.75-15.21s8.9,0,8.9,0Z"/>
            </g>
          </g>
          <g>
            <path class="cls-8" d="M39.27,21.36c0-.86-.63-1.37-1.69-1.37h-2.21v4.98h.66v-2.15h1.35c.86,0,1.1.2,1.1.92v.35c0,.3,0,.61.05.79l.03.09h.68l-.05-.16c-.05-.17-.05-.58-.05-.95v-.19c0-.56-.18-.95-.53-1.16.43-.21.66-.6.66-1.14ZM36.03,20.62h1.46c1.1,0,1.1.56,1.1.75,0,.38-.13.81-1.14.81h-1.43v-1.56Z"/>
            <polygon class="cls-8" points="42 22.66 44.94 22.66 44.94 22.03 42 22.03 42 20.61 45.09 20.61 45.09 19.99 41.33 19.99 41.33 24.97 45.14 24.97 45.25 24.34 42 24.34 42 22.66"/>
            <path class="cls-8" d="M48.73,19.99l-2.21,4.98h.71l.71-1.62h2.22l.74,1.62h.73l-2.29-4.98h-.62ZM49.89,22.71h-1.67c.39-.89.66-1.53.81-1.91.14.32.37.83.75,1.67l.11.24Z"/>
            <polygon class="cls-8" points="53.87 19.99 53.21 19.99 53.21 24.97 56.73 24.97 56.85 24.33 53.87 24.33 53.87 19.99"/>
            <polygon class="cls-8" points="62.13 22.66 65.07 22.66 65.07 22.03 62.13 22.03 62.13 20.61 65.22 20.61 65.22 19.99 61.47 19.99 61.47 24.97 65.28 24.97 65.39 24.34 62.13 24.34 62.13 22.66"/>
            <path class="cls-8" d="M68.96,22.03h0c-1.17-.19-1.26-.47-1.26-.82,0-.61.72-.7,1.15-.7,1.09,0,1.25.5,1.33.77l.03.09h.66l-.02-.14c-.05-.4-.34-1.34-1.99-1.34-1.1,0-1.83.55-1.83,1.37s.51,1.18,1.77,1.39c1.4.24,1.52.58,1.52.98,0,.51-.5.82-1.34.82s-1.32-.32-1.53-.99l-.03-.09h-.67l.03.15c.18,1,.96,1.55,2.19,1.55,1.5,0,2.04-.76,2.04-1.48s-.35-1.28-2.03-1.56Z"/>
            <polygon class="cls-8" points="72.14 20.62 74.02 20.62 74.02 24.97 74.69 24.97 74.69 20.62 76.57 20.62 76.57 19.99 72.14 19.99 72.14 20.62"/>
            <path class="cls-8" d="M79.04,19.99l-2.21,4.98h.71l.71-1.62h2.22l.74,1.62h.73l-2.29-4.98h-.62ZM80.2,22.71h-1.67c.39-.89.66-1.53.81-1.91.14.32.37.83.75,1.67l.11.24Z"/>
            <polygon class="cls-8" points="82.16 20.62 84.04 20.62 84.04 24.97 84.71 24.97 84.71 20.62 86.58 20.62 86.58 19.99 82.16 19.99 82.16 20.62"/>
            <polygon class="cls-8" points="88.86 24.34 88.86 22.66 91.8 22.66 91.8 22.03 88.86 22.03 88.86 20.61 91.95 20.61 91.95 19.99 88.19 19.99 88.19 24.97 92 24.97 92.11 24.34 88.86 24.34"/>
          </g>
          <g>
            <rect class="cls-8" x="35.37" y="4.22" width="1.49" height="11.77"/>
            <polygon class="cls-8" points="43.77 4.22 42.3 4.22 42.3 15.99 50.61 15.99 50.88 14.58 43.77 14.58 43.77 4.22"/>
            <polygon class="cls-8" points="63.32 8.95 56.19 8.95 56.19 4.22 54.7 4.22 54.7 15.99 56.19 15.99 56.19 10.36 63.32 10.36 63.32 15.99 64.81 15.99 64.81 4.22 63.32 4.22 63.32 8.95"/>
            <path class="cls-8" d="M92.16,4.22h-4.64v11.77h4.62c3.52,0,5.97-2.49,5.97-6.06s-2.39-5.71-5.95-5.71ZM89,5.61h3.01c2.76,0,4.55,1.71,4.55,4.35,0,2.9-1.76,4.63-4.72,4.63h-2.84V5.61Z"/>
            <path class="cls-8" d="M125.36,4.22h-5.26v11.77h1.49v-4.75h3.88c2.55,0,4.07-1.34,4.07-3.57,0-1.04-.41-3.45-4.18-3.45ZM121.59,5.65h3.64c1.84,0,2.77.69,2.77,2.04,0,1.49-.83,2.13-2.77,2.13h-3.64v-4.17Z"/>
            <polygon class="cls-8" points="148.52 14.6 156.61 5.3 156.61 4.22 146.72 4.22 146.72 5.62 154.46 5.62 146.33 14.93 146.33 15.99 156.69 15.99 156.99 14.6 148.52 14.6"/>
            <path class="cls-8" d="M141.59,15.99h1.63l-5.42-11.77h-1.42l-5.23,11.77h1.6l1.16-2.63h0l3.15-7.38,1.59,3.54c.08.18.16.36.25.55l.29.64h-.01l1.19,2.65h0l1.2,2.63Z"/>
            <polygon class="cls-8" points="75.26 4.22 73.84 4.22 68.61 15.99 70.2 15.99 74.52 5.98 76.58 10.55 76.65 10.71 76.65 10.71 79.04 15.99 80.67 15.99 75.26 4.22"/>
            <polygon class="cls-8" points="107.84 4.22 106.42 4.22 101.19 15.99 102.78 15.99 107.1 5.98 109.16 10.55 109.24 10.71 109.23 10.71 111.62 15.99 113.25 15.99 107.84 4.22"/>
            <rect class="cls-8" x="71.6" y="9.81" width="2.92" height="1.37"/>
            <rect class="cls-8" x="103.98" y="9.81" width="3.06" height="1.37"/>
            <rect class="cls-8" x="134.14" y="9.81" width="3.06" height="1.37"/>
          </g>
        </g>
      </g>
    </g>
  </g>
</svg>